<svg width="1931" height="1189" xmlns="http://www.w3.org/2000/svg" xmlns:xlink="http://www.w3.org/1999/xlink" overflow="hidden"><defs><clipPath id="clip0"><rect x="1097" y="416" width="1931" height="1189"/></clipPath><linearGradient x1="1901.61" y1="595.043" x2="2979.64" y2="1673.07" gradientUnits="userSpaceOnUse" spreadMethod="reflect" id="fill1"><stop offset="0" stop-color="#262626"/><stop offset="0.22" stop-color="#262626"/><stop offset="0.47" stop-color="#FF6600"/><stop offset="0.71" stop-color="#FFD966"/><stop offset="1" stop-color="#FFD966"/></linearGradient></defs><g clip-path="url(#clip0)" transform="translate(-1097 -416)"><path d="M2085.69 767.938 2244.09 767.938 2471.79 1041.84 2710.49 767.938 2871.09 767.938 2553.19 1133.14 2873.29 1510.44 2714.89 1510.44 2468.49 1215.64 2215.49 1510.44 2054.89 1510.44 2387.09 1123.24Z" stroke="#FFFFFF" stroke-width="5" stroke-linejoin="round" stroke-miterlimit="10" fill="url(#fill1)" fill-rule="evenodd"/><text fill="#000000" fill-opacity="0" font-family="Arial,Arial_MSFontService,sans-serif" font-size="742.5" x="2054.89" y="1417.62">X</text><path d="M1979.3 851.996 2210.3 851.996 2210.3 949.346 1985.9 949.346C1963.9 949.346 1945.47 951.821 1930.62 956.771 1915.77 961.721 1903.95 968.458 1895.15 976.983 1886.35 985.508 1880.16 995.408 1876.59 1006.68 1873.01 1017.96 1871.22 1030.2 1871.22 1043.4L1871.22 1096.2 2207 1096.2 2207 1188.6 1871.22 1188.6 1871.22 1408.87 1773.87 1408.87 1773.87 1044.22C1773.87 1016.17 1777.59 990.458 1785.01 967.083 1792.44 943.708 1804.4 923.496 1820.9 906.446 1837.4 889.396 1858.71 876.058 1884.84 866.433 1910.96 856.808 1942.45 851.996 1979.3 851.996ZM1463.82 851.996 1693.17 851.996 1693.17 949.346 1463.82 949.346C1409.92 949.346 1370.74 963.508 1346.26 991.833 1321.79 1020.16 1309.55 1066.5 1309.55 1130.85 1309.55 1194.65 1321.65 1240.71 1345.85 1269.03 1370.05 1297.36 1409.37 1311.52 1463.82 1311.52L1556.22 1311.52C1583.72 1311.52 1603.52 1304.23 1615.62 1289.66 1627.72 1275.08 1633.77 1256.25 1633.77 1233.15 1633.77 1210.6 1628.14 1193.13 1616.86 1180.76 1605.59 1168.38 1588.4 1162.2 1565.3 1162.2L1441.55 1162.2 1441.55 1077.22 1575.2 1077.22C1625.25 1077.22 1662.37 1091.38 1686.57 1119.71 1710.77 1148.03 1722.87 1186.4 1722.87 1234.8 1722.87 1259 1719.71 1281.68 1713.39 1302.86 1707.06 1324.03 1696.89 1342.46 1682.86 1358.13 1668.84 1373.81 1650.96 1386.18 1629.24 1395.26 1607.51 1404.33 1580.97 1408.87 1549.62 1408.87L1463.82 1408.87C1382.42 1408.87 1320.14 1385.91 1276.96 1339.98 1233.79 1294.06 1212.2 1224.35 1212.2 1130.85 1212.2 1036.8 1233.79 966.808 1276.96 920.883 1320.14 874.958 1382.42 851.996 1463.82 851.996Z" stroke="#FFFFFF" stroke-width="14" stroke-linejoin="round" stroke-miterlimit="10" fill="#262626" fill-rule="evenodd"/><text fill="#000000" fill-opacity="0" font-family="Arial,Arial_MSFontService,sans-serif" font-size="556.875" x="1212.2" y="1339.26">GF</text></g></svg>